<svg width="67" height="67" viewBox="0 0 67 67" fill="none" xmlns="http://www.w3.org/2000/svg">
<path fill-rule="evenodd" clip-rule="evenodd" d="M14 11.7812C14 11.3088 13.8156 10.8558 13.4874 10.5217C13.1592 10.1877 12.7141 10 12.25 10C11.7859 10 11.3408 10.1877 11.0126 10.5217C10.6844 10.8558 10.5 11.3088 10.5 11.7812V13.5625H7C5.14348 13.5625 3.36301 14.3132 2.05025 15.6494C0.737498 16.9856 0 18.7978 0 20.6875L0 24.25H56V20.6875C56 18.7978 55.2625 16.9856 53.9497 15.6494C52.637 14.3132 50.8565 13.5625 49 13.5625H45.5V11.7812C45.5 11.3088 45.3156 10.8558 44.9874 10.5217C44.6592 10.1877 44.2141 10 43.75 10C43.2859 10 42.8408 10.1877 42.5126 10.5217C42.1844 10.8558 42 11.3088 42 11.7812V13.5625H14V11.7812ZM0 27.8125H56V59.875C56 61.7647 55.2625 63.5769 53.9497 64.9131C52.637 66.2493 50.8565 67 49 67H7C5.14348 67 3.36301 66.2493 2.05025 64.9131C0.737498 63.5769 0 61.7647 0 59.875V27.8125ZM43.75 34.9375C43.2859 34.9375 42.8408 35.1252 42.5126 35.4592C42.1844 35.7933 42 36.2463 42 36.7188V40.2812C42 40.7537 42.1844 41.2067 42.5126 41.5408C42.8408 41.8748 43.2859 42.0625 43.75 42.0625H47.25C47.7141 42.0625 48.1592 41.8748 48.4874 41.5408C48.8156 41.2067 49 40.7537 49 40.2812V36.7188C49 36.2463 48.8156 35.7933 48.4874 35.4592C48.1592 35.1252 47.7141 34.9375 47.25 34.9375H43.75Z" fill="white"/>
<path d="M67 10.5C67 12.5767 66.3842 14.6068 65.2304 16.3335C64.0767 18.0602 62.4368 19.406 60.5182 20.2007C58.5996 20.9955 56.4884 21.2034 54.4516 20.7982C52.4148 20.3931 50.5438 19.3931 49.0754 17.9246C47.6069 16.4562 46.6069 14.5852 46.2018 12.5484C45.7966 10.5116 46.0045 8.40045 46.7993 6.48182C47.594 4.5632 48.9398 2.92332 50.6665 1.76957C52.3932 0.615814 54.4233 0 56.5 0C59.2848 0 61.9555 1.10625 63.9246 3.07538C65.8938 5.04451 67 7.71522 67 10.5ZM61.4809 9.51562H57.4844V5.51906C57.4844 5.25799 57.3807 5.00761 57.1961 4.823C57.0115 4.6384 56.7611 4.53469 56.5 4.53469C56.2389 4.53469 55.9886 4.6384 55.8039 4.823C55.6193 5.00761 55.5156 5.25799 55.5156 5.51906V9.51562H51.5191C51.258 9.51562 51.0076 9.61933 50.823 9.80394C50.6384 9.98855 50.5347 10.2389 50.5347 10.5C50.5347 10.7611 50.6384 11.0114 50.823 11.1961C51.0076 11.3807 51.258 11.4844 51.5191 11.4844H55.5156V15.4809C55.5156 15.742 55.6193 15.9924 55.8039 16.177C55.9886 16.3616 56.2389 16.4653 56.5 16.4653C56.7611 16.4653 57.0115 16.3616 57.1961 16.177C57.3807 15.9924 57.4844 15.742 57.4844 15.4809V11.4844H61.4809C61.742 11.4844 61.9924 11.3807 62.177 11.1961C62.3616 11.0114 62.4653 10.7611 62.4653 10.5C62.4653 10.2389 62.3616 9.98855 62.177 9.80394C61.9924 9.61933 61.742 9.51562 61.4809 9.51562Z" fill="white"/>
</svg>
