<svg width="56" height="56" viewBox="0 0 56 56" fill="none" xmlns="http://www.w3.org/2000/svg">
<path d="M56 28C56 33.5379 54.3578 38.9514 51.2812 43.556C48.2045 48.1605 43.8315 51.7494 38.7151 53.8686C33.5988 55.9879 27.9689 56.5424 22.5375 55.462C17.106 54.3816 12.1169 51.7149 8.20102 47.799C4.28515 43.8831 1.61841 38.894 0.538025 33.4625C-0.542361 28.0311 0.0121319 22.4012 2.13139 17.2849C4.25064 12.1685 7.83947 7.79553 12.444 4.71885C17.0486 1.64217 22.4621 0 28 0C35.4261 0 42.548 2.94999 47.799 8.20101C53.05 13.452 56 20.5739 56 28ZM41.2825 25.375H30.625V14.7175C30.625 14.0213 30.3484 13.3536 29.8562 12.8613C29.3639 12.3691 28.6962 12.0925 28 12.0925C27.3038 12.0925 26.6361 12.3691 26.1439 12.8613C25.6516 13.3536 25.375 14.0213 25.375 14.7175V25.375H14.7175C14.0213 25.375 13.3536 25.6516 12.8614 26.1438C12.3691 26.6361 12.0925 27.3038 12.0925 28C12.0925 28.6962 12.3691 29.3639 12.8614 29.8561C13.3536 30.3484 14.0213 30.625 14.7175 30.625H25.375V41.2825C25.375 41.9787 25.6516 42.6464 26.1439 43.1386C26.6361 43.6309 27.3038 43.9075 28 43.9075C28.6962 43.9075 29.3639 43.6309 29.8562 43.1386C30.3484 42.6464 30.625 41.9787 30.625 41.2825V30.625H41.2825C41.9787 30.625 42.6464 30.3484 43.1387 29.8561C43.6309 29.3639 43.9075 28.6962 43.9075 28C43.9075 27.3038 43.6309 26.6361 43.1387 26.1438C42.6464 25.6516 41.9787 25.375 41.2825 25.375V25.375Z" fill="white"/>
</svg>
