<svg width="56" height="56" viewBox="0 0 56 56" fill="none" xmlns="http://www.w3.org/2000/svg">
<path fill-rule="evenodd" clip-rule="evenodd" d="M14 1.75C14 1.28587 13.8156 0.840752 13.4874 0.512563C13.1592 0.184374 12.7141 0 12.25 0C11.7859 0 11.3408 0.184374 11.0126 0.512563C10.6844 0.840752 10.5 1.28587 10.5 1.75V3.5H7C5.14348 3.5 3.36301 4.2375 2.05025 5.55025C0.737498 6.86301 0 8.64348 0 10.5L0 14H56V10.5C56 8.64348 55.2625 6.86301 53.9497 5.55025C52.637 4.2375 50.8565 3.5 49 3.5H45.5V1.75C45.5 1.28587 45.3156 0.840752 44.9874 0.512563C44.6592 0.184374 44.2141 0 43.75 0C43.2859 0 42.8408 0.184374 42.5126 0.512563C42.1844 0.840752 42 1.28587 42 1.75V3.5H14V1.75ZM0 17.5H56V49C56 50.8565 55.2625 52.637 53.9497 53.9497C52.637 55.2625 50.8565 56 49 56H7C5.14348 56 3.36301 55.2625 2.05025 53.9497C0.737498 52.637 0 50.8565 0 49V17.5ZM33.25 24.5C32.7859 24.5 32.3408 24.6844 32.0126 25.0126C31.6844 25.3408 31.5 25.7859 31.5 26.25V29.75C31.5 30.2141 31.6844 30.6593 32.0126 30.9874C32.3408 31.3156 32.7859 31.5 33.25 31.5H36.75C37.2141 31.5 37.6592 31.3156 37.9874 30.9874C38.3156 30.6593 38.5 30.2141 38.5 29.75V26.25C38.5 25.7859 38.3156 25.3408 37.9874 25.0126C37.6592 24.6844 37.2141 24.5 36.75 24.5H33.25ZM43.75 24.5C43.2859 24.5 42.8408 24.6844 42.5126 25.0126C42.1844 25.3408 42 25.7859 42 26.25V29.75C42 30.2141 42.1844 30.6593 42.5126 30.9874C42.8408 31.3156 43.2859 31.5 43.75 31.5H47.25C47.7141 31.5 48.1592 31.3156 48.4874 30.9874C48.8156 30.6593 49 30.2141 49 29.75V26.25C49 25.7859 48.8156 25.3408 48.4874 25.0126C48.1592 24.6844 47.7141 24.5 47.25 24.5H43.75ZM7 36.75C7 36.2859 7.18437 35.8408 7.51256 35.5126C7.84075 35.1844 8.28587 35 8.75 35H12.25C12.7141 35 13.1592 35.1844 13.4874 35.5126C13.8156 35.8408 14 36.2859 14 36.75V40.25C14 40.7141 13.8156 41.1592 13.4874 41.4874C13.1592 41.8156 12.7141 42 12.25 42H8.75C8.28587 42 7.84075 41.8156 7.51256 41.4874C7.18437 41.1592 7 40.7141 7 40.25V36.75ZM19.25 35C18.7859 35 18.3408 35.1844 18.0126 35.5126C17.6844 35.8408 17.5 36.2859 17.5 36.75V40.25C17.5 40.7141 17.6844 41.1592 18.0126 41.4874C18.3408 41.8156 18.7859 42 19.25 42H22.75C23.2141 42 23.6592 41.8156 23.9874 41.4874C24.3156 41.1592 24.5 40.7141 24.5 40.25V36.75C24.5 36.2859 24.3156 35.8408 23.9874 35.5126C23.6592 35.1844 23.2141 35 22.75 35H19.25Z" fill="white"/>
</svg>
