<svg fill="#17303F" version="1.1" xmlns="http://www.w3.org/2000/svg" xmlns:xlink="http://www.w3.org/1999/xlink" x="0px" y="0px"
	 viewBox="0 0 84 84" style="enable-background:new 0 0 84 84;" xml:space="preserve">
<path d="M42,0C18.8,0,0,18.8,0,42s18.8,42,42,42s42-18.8,42-42C84,18.8,65.2,0,42,0z M55.8,50.2c1.3,1.8,1,4.3-0.8,5.6
	c-1.4,1.1-3.4,1.1-4.8,0L42,47.6l-8.2,8.2c-1.8,1.3-4.3,1-5.6-0.8c-1.1-1.4-1.1-3.4,0-4.8l8.2-8.2l-8.2-8.2c-1.3-1.8-1-4.3,0.8-5.6
	c1.4-1.1,3.4-1.1,4.8,0l8.2,8.2l8.2-8.2c1.8-1.3,4.3-1,5.6,0.8c1.1,1.4,1.1,3.4,0,4.8L47.6,42L55.8,50.2z"/>
</svg>
