<svg width="56" height="56" viewBox="0 0 56 56" fill="none" xmlns="http://www.w3.org/2000/svg">
<path d="M49 56H7C5.06771 56 3.41797 55.3164 2.05078 53.9492C0.683594 52.582 0 50.9323 0 49V14C0 12.0677 0.683594 10.418 2.05078 9.05078C3.41797 7.68359 5.06771 7 7 7H10.5V3.5C10.5 2.51562 10.8464 1.6862 11.5391 1.01172C12.2318 0.33724 13.0612 0 14.0273 0C14.9935 0 15.8138 0.33724 16.4883 1.01172C17.1628 1.6862 17.5 2.51562 17.5 3.5V7H24.5V3.5C24.5 2.51562 24.8464 1.6862 25.5391 1.01172C26.2318 0.33724 27.0612 0 28.0273 0C28.9935 0 29.8138 0.33724 30.4883 1.01172C31.1628 1.6862 31.5 2.51562 31.5 3.5V7H38.5V3.5C38.5 2.51562 38.8464 1.6862 39.5391 1.01172C40.2318 0.33724 41.0612 0 42.0273 0C42.9935 0 43.8138 0.33724 44.4883 1.01172C45.1628 1.6862 45.5 2.51562 45.5 3.5V7H49C50.9323 7 52.582 7.68359 53.9492 9.05078C55.3164 10.418 56 12.0677 56 14V49C56 50.9323 55.3164 52.582 53.9492 53.9492C52.582 55.3164 50.9323 56 49 56ZM43.75 21H12.25C11.776 21 11.3659 21.1732 11.0195 21.5195C10.6732 21.8659 10.5 22.276 10.5 22.75C10.5 23.224 10.6732 23.6341 11.0195 23.9805C11.3659 24.3268 11.776 24.5 12.25 24.5H43.75C44.224 24.5 44.6341 24.3268 44.9805 23.9805C45.3268 23.6341 45.5 23.224 45.5 22.75C45.5 22.276 45.3268 21.8659 44.9805 21.5195C44.6341 21.1732 44.224 21 43.75 21ZM43.75 31.5H12.25C11.776 31.5 11.3659 31.6732 11.0195 32.0195C10.6732 32.3659 10.5 32.776 10.5 33.25C10.5 33.724 10.6732 34.1341 11.0195 34.4805C11.3659 34.8268 11.776 35 12.25 35H43.75C44.224 35 44.6341 34.8268 44.9805 34.4805C45.3268 34.1341 45.5 33.724 45.5 33.25C45.5 32.776 45.3268 32.3659 44.9805 32.0195C44.6341 31.6732 44.224 31.5 43.75 31.5ZM43.75 42H12.25C11.776 42 11.3659 42.1732 11.0195 42.5195C10.6732 42.8659 10.5 43.276 10.5 43.75C10.5 44.224 10.6732 44.6341 11.0195 44.9805C11.3659 45.3268 11.776 45.5 12.25 45.5H43.75C44.224 45.5 44.6341 45.3268 44.9805 44.9805C45.3268 44.6341 45.5 44.224 45.5 43.75C45.5 43.276 45.3268 42.8659 44.9805 42.5195C44.6341 42.1732 44.224 42 43.75 42Z" fill="white"/>
</svg>
