<svg xmlns="http://www.w3.org/2000/svg" xmlns:xlink="http://www.w3.org/1999/xlink" width="56pt" height="56pt" viewBox="0 0 56 56" version="1.1">
<path d="M 32.667969 28 L 23.332031 28 L 23.332031 0 L 32.667969 0 Z M 42.496094 4.09375 L 39.667969 7.824219 C 46.628906 11.863281 51.332031 19.386719 51.332031 28 C 51.332031 40.867188 40.867188 51.332031 28 51.332031 C 15.132812 51.332031 4.667969 40.867188 4.667969 28 C 4.667969 19.386719 9.371094 11.863281 16.332031 7.824219 L 13.503906 4.09375 C 5.417969 9 0 17.851562 0 28 C 0 43.464844 12.535156 56 28 56 C 43.464844 56 56 43.464844 56 28 C 56 17.851562 50.582031 9 42.496094 4.09375 Z M 42.496094 4.09375 "/>
</svg>
